<?xml version="1.0" encoding="UTF-8"?>
<!DOCTYPE svg PUBLIC "-//W3C//DTD SVG 1.1//EN" "http://www.w3.org/Graphics/SVG/1.1/DTD/svg11.dtd">
<!-- Creator: CorelDRAW X6 -->
<svg xmlns="http://www.w3.org/2000/svg" xml:space="preserve" width="10.9469in" height="3.1273in" version="1.1" style="shape-rendering:geometricPrecision; text-rendering:geometricPrecision; image-rendering:optimizeQuality; fill-rule:evenodd; clip-rule:evenodd"
viewBox="0 0 10947 3127"
 xmlns:xlink="http://www.w3.org/1999/xlink">
 <defs>
  <style type="text/css">
   <![CDATA[
    .fil0 {fill:#2B2827;fill-rule:nonzero}
    .fil1 {fill:#FEFEFE;fill-rule:nonzero}
   ]]>
  </style>
 </defs>
 <g id="__x0023_Layer_x0020_1">
  <metadata id="CorelCorpID_0Corel-Layer"/>
  <path class="fil0" d="M10941 2803c0,174 -140,311 -314,311l-10326 0c-174,0 -307,-133 -307,-307l0 -2514c0,-174 132,-307 307,-307l10326 0c174,0 313,132 313,307l0 2514 1 -4z"/>
  <path class="fil1" d="M2391 1533c-2,-265 217,-394 227,-400 -124,-181 -317,-206 -385,-208 -162,-17 -319,97 -401,97 -84,0 -211,-95 -348,-93 -176,3 -341,105 -431,263 -186,323 -47,797 131,1058 89,128 194,270 331,265 134,-6 184,-85 345,-85 160,0 207,85 346,82 144,-2 234,-128 320,-257 103,-146 145,-291 146,-298 -3,-1 -279,-106 -281,-424z"/>
  <path class="fil1" d="M2128 753c72,-90 121,-212 107,-337 -104,5 -234,72 -309,160 -66,78 -126,205 -110,324 117,9 237,-59 312,-148z"/>
  <path class="fil1" d="M4327 2498l-187 0 -102 -322 -356 0 -98 322 -182 0 353 -1095 218 0 354 1095zm-320 -457l0 0 -93 -286c-10,-29 -28,-98 -55,-206l-3 0c-11,47 -28,115 -52,206l-91 286 294 0z"/>
  <path class="fil1" d="M5233 2093c0,134 -36,241 -109,319 -65,69 -146,104 -242,104 -104,0 -179,-37 -224,-112l-3 0 0 416 -176 0 0 -851c0,-84 -2,-171 -6,-260l154 0 10 125 3 0c58,-94 147,-141 266,-141 93,0 171,37 233,111 62,74 93,171 93,291zm-179 6l0 0c0,-77 -17,-140 -52,-190 -38,-52 -89,-78 -153,-78 -43,0 -83,15 -118,43 -35,29 -58,66 -69,113 -5,22 -8,39 -8,53l0 132c0,57 17,106 53,145 35,40 81,59 137,59 66,0 118,-25 154,-76 37,-51 55,-118 55,-202z"/>
  <path class="fil1" d="M6142 2093c0,134 -36,241 -109,319 -65,69 -146,104 -242,104 -104,0 -179,-37 -224,-112l-3 0 0 416 -175 0 0 -851c0,-84 -2,-171 -6,-260l154 0 10 125 3 0c58,-94 147,-141 266,-141 93,0 171,37 233,111 62,74 93,171 93,291zm-179 6l0 0c0,-77 -17,-140 -52,-190 -38,-52 -89,-78 -153,-78 -43,0 -83,15 -118,43 -35,29 -58,66 -69,113 -6,22 -8,39 -8,53l0 132c0,57 17,106 53,145 35,40 81,59 137,59 66,0 118,-25 154,-76 37,-51 55,-118 55,-202z"/>
  <path class="fil1" d="M7157 2191c0,93 -32,169 -97,227 -71,64 -171,96 -298,96 -118,0 -212,-23 -284,-68l41 -146c77,47 162,70 254,70 66,0 118,-15 155,-45 37,-30 55,-70 55,-120 0,-44 -15,-82 -45,-112 -30,-30 -81,-59 -151,-85 -192,-72 -287,-176 -287,-314 0,-90 33,-164 101,-221 67,-58 156,-86 268,-86 100,0 183,17 249,52l-44 143c-62,-33 -132,-50 -210,-50 -62,0 -110,15 -145,45 -29,27 -44,60 -44,99 0,43 17,79 50,107 29,26 82,54 159,85 94,38 163,82 208,133 44,51 67,114 67,190z"/>
  <path class="fil1" d="M7737 1840l-193 0 0 383c0,97 34,146 102,146 31,0 57,-3 78,-8l5 133c-34,13 -80,19 -136,19 -69,0 -124,-21 -162,-63 -39,-42 -59,-113 -59,-213l0 -398 -115 0 0 -132 115 0 0 -145 172 -52 0 197 193 0 0 132z"/>
  <path class="fil1" d="M8610 2096c0,121 -35,221 -104,299 -73,80 -169,120 -289,120 -116,0 -208,-38 -277,-115 -69,-77 -103,-174 -103,-291 0,-123 35,-223 106,-301 71,-78 166,-117 287,-117 116,0 209,38 280,115 67,75 101,171 101,289zm-182 6l0 0c0,-73 -16,-135 -47,-187 -37,-63 -89,-95 -157,-95 -71,0 -124,32 -161,95 -31,52 -47,116 -47,191 0,73 15,135 47,187 38,63 91,94 159,94 67,0 120,-32 157,-96 32,-53 49,-116 49,-189z"/>
  <path class="fil1" d="M9180 1862c-17,-3 -36,-5 -55,-5 -62,0 -110,23 -143,70 -29,41 -44,93 -44,156l0 414 -175 0 1 -541c0,-91 -2,-174 -6,-249l153 0 6 151 5 0c18,-52 48,-94 88,-125 39,-28 81,-42 127,-42 16,0 31,1 44,3l0 167z"/>
  <path class="fil1" d="M9965 2065c0,32 -2,58 -6,80l-526 0c2,78 28,138 76,179 44,37 102,55 172,55 78,0 149,-12 213,-37l28 122c-75,32 -163,49 -265,49 -122,0 -219,-36 -288,-108 -70,-72 -105,-169 -105,-290 0,-119 32,-218 98,-297 68,-84 160,-127 276,-127 114,0 200,42 259,127 46,67 70,150 70,249zm-167 -46l0 0c1,-52 -10,-97 -34,-135 -30,-49 -77,-73 -140,-73 -57,0 -104,24 -140,72 -29,38 -47,83 -52,136l365 0z"/>
  <path class="fil1" d="M3942 729c0,97 -29,170 -87,219 -54,45 -130,68 -229,68 -49,0 -91,-2 -126,-6l0 -529c46,-7 95,-11 148,-11 94,0 165,20 213,61 54,46 80,112 80,199zm-91 2l0 0c0,-63 -17,-111 -50,-145 -33,-34 -82,-50 -146,-50 -27,0 -50,2 -69,6l0 402c11,2 30,2 58,2 66,0 117,-18 153,-55 36,-37 54,-90 54,-160z"/>
  <path class="fil1" d="M4424 813c0,60 -17,109 -51,147 -36,40 -83,59 -142,59 -57,0 -102,-19 -136,-57 -34,-38 -51,-85 -51,-143 0,-60 17,-109 52,-148 35,-38 82,-57 141,-57 57,0 103,19 137,57 33,37 50,84 50,142zm-89 3l0 0c0,-36 -8,-66 -23,-92 -18,-31 -44,-47 -77,-47 -34,0 -61,16 -79,47 -15,26 -23,57 -23,94 0,36 8,67 23,92 18,31 45,46 78,46 33,0 59,-16 77,-47 16,-26 24,-57 24,-93z"/>
  <path class="fil1" d="M5071 623l-122 388 -79 0 -50 -168c-13,-42 -23,-84 -31,-125l-1 0c-8,43 -18,84 -31,125l-53 168 -80 0 -114 -388 89 0 44 184c11,44 19,85 26,125l2 0c6,-33 17,-74 32,-124l55 -185 70 0 53 181c13,44 23,87 31,128l2 0c6,-40 15,-82 27,-128l47 -181 85 0z"/>
  <path class="fil1" d="M5518 1010l-86 0 0 -222c0,-69 -26,-103 -78,-103 -26,0 -46,9 -62,28 -16,19 -24,41 -24,67l0 230 -86 0 0 -277c0,-34 -1,-71 -3,-111l76 0 4 61 2 0c10,-19 25,-34 45,-47 23,-14 50,-22 78,-22 36,0 66,12 90,35 30,29 45,72 45,129l0 232z"/>
  <polygon class="fil1" points="5756,1010 5669,1010 5669,444 5756,444 "/>
  <path class="fil1" d="M6263 813c0,60 -17,109 -51,147 -36,40 -83,59 -142,59 -57,0 -102,-19 -136,-57 -34,-38 -51,-85 -51,-143 0,-60 17,-109 52,-148 35,-38 82,-57 141,-57 57,0 103,19 137,57 33,37 50,84 50,142zm-89 3l0 0c0,-36 -8,-66 -23,-92 -18,-31 -44,-47 -77,-47 -34,0 -61,16 -79,47 -15,26 -23,57 -23,94 0,36 8,67 23,92 19,31 45,46 78,46 33,0 59,-16 78,-47 16,-26 24,-57 24,-93z"/>
  <path class="fil1" d="M6681 1010l-78 0 -6 -45 -2 0c-27,36 -64,53 -113,53 -37,0 -66,-12 -89,-35 -20,-21 -30,-48 -30,-79 0,-47 20,-84 60,-109 39,-25 95,-37 167,-37l0 -7c0,-51 -27,-77 -80,-77 -38,0 -72,10 -101,29l-17 -57c36,-22 80,-34 133,-34 102,0 152,53 152,161l0 143c0,39 2,70 6,93zm-90 -133l0 0 0 -60c-95,-2 -143,25 -143,78 0,20 6,35 17,45 11,10 25,15 42,15 19,0 36,-6 53,-18 16,-12 26,-27 30,-46 1,-4 2,-9 2,-15z"/>
  <path class="fil1" d="M7171 1010l-77 0 -4 -62 -2 0c-24,47 -66,71 -124,71 -47,0 -86,-18 -117,-55 -31,-37 -46,-84 -46,-143 0,-63 17,-114 50,-153 33,-36 72,-54 120,-54 52,0 89,18 109,53l2 0 0 -223 86 0 0 461c0,38 1,73 3,105zm-89 -164l0 0 0 -65c0,-11 -1,-20 -2,-27 -5,-21 -15,-38 -31,-52 -16,-14 -35,-21 -58,-21 -32,0 -57,13 -76,38 -19,26 -28,58 -28,98 0,38 9,70 27,94 19,26 44,38 75,38 28,0 51,-11 68,-32 17,-20 25,-43 25,-71z"/>
  <path class="fil1" d="M7909 813c0,60 -17,109 -51,147 -35,40 -83,59 -142,59 -57,0 -102,-19 -136,-57 -34,-38 -51,-85 -51,-143 0,-60 17,-109 52,-148 35,-38 82,-57 141,-57 57,0 103,19 137,57 33,37 50,84 50,142zm-90 3l0 0c0,-36 -8,-66 -23,-92 -18,-31 -44,-47 -77,-47 -35,0 -61,16 -79,47 -15,26 -23,57 -23,94 0,36 8,67 23,92 19,31 45,46 78,46 33,0 59,-16 77,-47 16,-26 24,-57 24,-93z"/>
  <path class="fil1" d="M8372 1010l-86 0 0 -222c0,-69 -26,-103 -78,-103 -26,0 -46,9 -62,28 -16,19 -24,41 -24,67l0 230 -86 0 0 -277c0,-34 -1,-71 -3,-111l76 0 4 61 2 0c10,-19 25,-34 45,-47 23,-14 50,-22 78,-22 36,0 66,12 90,35 30,29 45,72 45,129l0 232z"/>
  <path class="fil1" d="M8953 687l-95 0 0 189c0,48 17,72 50,72 15,0 28,-1 38,-4l2 65c-17,6 -39,10 -67,10 -34,0 -61,-10 -80,-31 -19,-21 -29,-56 -29,-105l0 -196 -57 0 0 -65 57 0 0 -71 85 -25 0 97 95 0 0 65z"/>
  <path class="fil1" d="M9409 1010l-86 0 0 -221c0,-70 -26,-104 -78,-104 -40,0 -67,20 -82,60 -3,9 -4,19 -4,31l0 233 -86 0 0 -566 86 0 0 234 2 0c27,-43 66,-64 116,-64 36,0 65,12 89,35 29,29 44,73 44,130l0 231z"/>
  <path class="fil1" d="M9880 798c0,15 -1,28 -3,39l-259 0c1,38 13,67 37,88 22,18 50,27 85,27 38,0 73,-6 105,-18l13 60c-36,16 -80,24 -130,24 -60,0 -107,-18 -142,-53 -34,-35 -51,-83 -51,-143 0,-59 16,-107 48,-146 34,-42 79,-62 136,-62 56,0 98,21 127,62 23,33 34,74 34,122zm-82 -22l0 0c0,-26 -5,-48 -17,-66 -15,-24 -38,-36 -68,-36 -28,0 -51,12 -69,35 -14,19 -23,41 -25,67l180 0z"/>
 </g>
</svg>
