<?xml version="1.0" encoding="UTF-8"?>
<!DOCTYPE svg PUBLIC "-//W3C//DTD SVG 1.1//EN" "http://www.w3.org/Graphics/SVG/1.1/DTD/svg11.dtd">
<!-- Creator: CorelDRAW X6 -->
<svg xmlns="http://www.w3.org/2000/svg" xml:space="preserve" width="11.6929in" height="8.26771in" version="1.1" style="shape-rendering:geometricPrecision; text-rendering:geometricPrecision; image-rendering:optimizeQuality; fill-rule:evenodd; clip-rule:evenodd"
viewBox="0 0 11693 8268"
 xmlns:xlink="http://www.w3.org/1999/xlink">
 <defs>
  <style type="text/css">
   <![CDATA[
    .str0 {stroke:white;stroke-width:3}
    .fil7 {fill:none;fill-rule:nonzero}
    .fil0 {fill:black;fill-rule:nonzero}
    .fil1 {fill:#A5A5A5;fill-rule:nonzero}
    .fil2 {fill:white;fill-rule:nonzero}
    .fil4 {fill:url(#id0);fill-rule:nonzero}
    .fil5 {fill:url(#id1);fill-rule:nonzero}
    .fil3 {fill:url(#id2);fill-rule:nonzero}
    .fil6 {fill:url(#id3);fill-rule:nonzero}
   ]]>
  </style>
  <linearGradient id="id0" gradientUnits="userSpaceOnUse" x1="4156.56" y1="4123.52" x2="3637.68" y2="4123.52">
   <stop offset="0" style="stop-color:#FFDF00"/>
   <stop offset="0.4" style="stop-color:#FFBC00"/>
   <stop offset="0.768627" style="stop-color:orange"/>
   <stop offset="1" style="stop-color:#FF9C00"/>
  </linearGradient>
  <linearGradient id="id1" gradientUnits="userSpaceOnUse" x1="3698.54" y1="4702.16" x2="3169.98" y2="4179.76">
   <stop offset="0" style="stop-color:#FF3A44"/>
   <stop offset="1" style="stop-color:#C31162"/>
  </linearGradient>
  <linearGradient id="id2" gradientUnits="userSpaceOnUse" x1="3645.57" y1="4446.72" x2="2991.58" y2="3800.33">
   <stop offset="0" style="stop-color:#00A0FF"/>
   <stop offset="0" style="stop-color:#00A1FF"/>
   <stop offset="0.258824" style="stop-color:#00BDFF"/>
   <stop offset="0.509804" style="stop-color:#00D1FF"/>
   <stop offset="0.760784" style="stop-color:#00DFFF"/>
   <stop offset="1" style="stop-color:#00E2FF"/>
  </linearGradient>
  <linearGradient id="id3" gradientUnits="userSpaceOnUse" x1="3324.16" y1="3915.05" x2="3544.36" y2="3697.42">
   <stop offset="0" style="stop-color:#31A070"/>
   <stop offset="0.0588235" style="stop-color:#2DA770"/>
   <stop offset="0.470588" style="stop-color:#15CF74"/>
   <stop offset="0.8" style="stop-color:#05E675"/>
   <stop offset="1" style="stop-color:#00EF75"/>
  </linearGradient>
 </defs>
 <g id="svg2">
  <metadata id="CorelCorpID_0Corel-Layer"/>
  <g id="_334871768">
   <g>
    <path class="fil0" d="M8924 5099l-6170 0c-136,0 -247,-110 -247,-244l0 -1464c0,-134 111,-244 247,-244l6170 0c136,0 247,110 247,244l0 1464c0,134 -111,244 -247,244z"/>
    <path class="fil1" d="M8924 3187c114,0 207,92 207,205l0 1464c0,113 -93,205 -207,205l-6170 0c-114,0 -207,-92 -207,-205l0 -1464c0,-113 93,-205 207,-205l6170 0zm0 -39l0 0 -6170 0c-136,0 -247,110 -247,244l0 1464c0,134 111,244 247,244l6170 0c136,0 247,-110 247,-244l0 -1464c0,-134 -111,-244 -247,-244z"/>
    <g>
     <path class="fil2 str0" d="M4848 3648c0,41 -12,73 -37,98 -28,29 -64,43 -109,43 -43,0 -79,-15 -109,-44 -30,-30 -45,-66 -45,-109 0,-43 15,-80 45,-109 30,-29 66,-44 109,-44 21,0 41,4 61,12 19,8 35,19 46,33l-26 26c-20,-23 -47,-35 -81,-35 -31,0 -58,11 -81,32 -23,22 -34,50 -34,84 0,34 11,63 34,85 23,21 50,32 81,32 33,0 61,-11 83,-33 14,-14 23,-34 25,-59l-107 0 0 -35 143 0c2,8 2,15 2,22z"/>
    </g>
    <g>
     <polygon class="fil2 str0" points="5075,3525 4941,3525 4941,3618 5062,3618 5062,3653 4941,3653 4941,3746 5075,3746 5075,3782 4903,3782 4903,3489 5075,3489 "/>
    </g>
    <g>
     <polygon class="fil2 str0" points="5236,3782 5198,3782 5198,3525 5115,3525 5115,3489 5319,3489 5319,3525 5236,3525 "/>
    </g>
    <g>
     <polygon class="fil2 str0" points="5466,3782 5466,3489 5504,3489 5504,3782 "/>
    </g>
    <g>
     <polygon class="fil2 str0" points="5673,3782 5635,3782 5635,3525 5552,3525 5552,3489 5756,3489 5756,3525 5673,3525 "/>
    </g>
    <g>
     <path class="fil2 str0" d="M6141 3744c-29,30 -65,44 -108,44 -43,0 -80,-15 -109,-44 -29,-30 -44,-66 -44,-109 0,-43 15,-79 44,-109 29,-30 65,-44 109,-44 43,0 79,15 108,45 29,30 44,66 44,108 0,43 -15,79 -44,109zm-189 -25l0 0c22,22 49,33 80,33 32,0 59,-11 80,-33 22,-22 33,-50 33,-84 0,-34 -11,-62 -33,-84 -22,-22 -49,-33 -80,-33 -32,0 -59,11 -80,33 -22,22 -33,50 -33,84 0,34 11,62 33,84z"/>
    </g>
    <g>
     <polygon class="fil2 str0" points="6238,3782 6238,3489 6284,3489 6428,3717 6430,3717 6428,3661 6428,3489 6466,3489 6466,3782 6426,3782 6276,3543 6274,3543 6276,3600 6276,3782 "/>
    </g>
    <path class="fil2" d="M5871 4209c-116,0 -211,87 -211,208 0,119 95,207 211,207 116,0 211,-88 211,-207 0,-120 -95,-208 -211,-208zm0 333l0 0c-64,0 -118,-52 -118,-126 0,-75 55,-126 118,-126 64,0 119,51 119,126 0,74 -55,126 -119,126zm-460 -333l0 0c-116,0 -211,87 -211,208 0,119 94,207 211,207 116,0 211,-88 211,-207 0,-120 -95,-208 -211,-208zm0 333l0 0c-64,0 -119,-52 -119,-126 0,-75 55,-126 119,-126 64,0 118,51 118,126 0,74 -55,126 -118,126zm-547 -270l0 0 0 88 213 0c-6,49 -23,86 -48,111 -31,30 -80,64 -165,64 -131,0 -234,-105 -234,-234 0,-130 103,-234 234,-234 71,0 122,27 161,63l63 -62c-53,-50 -124,-89 -223,-89 -180,0 -331,145 -331,322 0,178 151,322 331,322 97,0 170,-31 228,-91 59,-58 77,-140 77,-206 0,-20 -2,-39 -5,-55l-300 0zm2236 68l0 0c-17,-46 -71,-132 -180,-132 -108,0 -198,84 -198,208 0,116 89,207 208,207 96,0 152,-58 175,-92l-72 -47c-24,34 -56,57 -103,57 -47,0 -80,-21 -102,-63l281 -115 -10 -24 0 0zm-286 69l0 0c-2,-80 63,-121 110,-121 37,0 68,18 78,44l-188 77zm-228 201l0 0 92 0 0 -610 -92 0 0 610zm-151 -356l0 0 -3 0c-21,-24 -60,-46 -110,-46 -105,0 -201,91 -201,208 0,116 96,207 201,207 50,0 90,-22 110,-47l3 0 0 30c0,79 -43,122 -112,122 -56,0 -91,-40 -106,-74l-80 33c23,55 84,123 186,123 108,0 200,-63 200,-216l0 -373 -87 0 0 34zm-106 287l0 0c-64,0 -117,-53 -117,-125 0,-73 53,-126 117,-126 63,0 112,53 112,126 0,72 -49,125 -112,125zm1203 -541l0 0 -221 0 0 610 92 0 0 -231 129 0c102,0 203,-73 203,-189 0,-116 -101,-189 -203,-189zm2 294l0 0 -131 0 0 -209 131 0c69,0 108,56 108,105 0,47 -39,105 -108,105zm569 -88l0 0c-66,0 -136,29 -164,93l82 34c18,-34 50,-45 84,-45 48,0 96,28 97,78l0 6c-17,-10 -52,-24 -96,-24 -88,0 -178,48 -178,137 0,82 72,134 153,134 62,0 96,-28 118,-60l3 0 0 47 89 0 0 -234c0,-108 -82,-169 -188,-169zm-11 334l0 0c-30,0 -72,-15 -72,-52 0,-47 52,-65 98,-65 41,0 60,9 84,20 -7,56 -56,96 -110,96zm523 -321l0 0 -106 264 -3 0 -109 -264 -99 0 164 369 -94 206 96 0 253 -575 -102 0zm-830 390l0 0 92 0 0 -610 -92 0 0 610z"/>
    <g>
     <path class="fil3" d="M3022 3516c-14,15 -23,38 -23,69l0 1079c0,30 8,54 23,69l4 3 612 -604 0 -14 -612 -604 -4 4z"/>
    </g>
    <g>
     <path class="fil4" d="M3841 4332l-204 -202 0 -14 204 -202 5 3 242 136c69,39 69,102 0,141l-242 136 -5 3z"/>
    </g>
    <g>
     <path class="fil5" d="M3846 4330l-208 -206 -615 608c23,24 60,27 103,3l721 -405z"/>
    </g>
    <g>
     <path class="fil6" d="M3846 3917l-721 -405c-42,-24 -80,-21 -103,3l615 608 208 -206z"/>
    </g>
    <g>
     <g>
      <g>
       <g>
        <g>
         <g>
          <g>
           <g>
            <g>
             <polygon class="fil0" points="6661,2851 6320,2660 6333,2660 6666,2847 "/>
            </g>
           </g>
           <g>
            <g>
             <polygon class="fil0" points="6661,2851 6320,2660 6333,2660 6666,2847 "/>
            </g>
           </g>
          </g>
         </g>
         <g>
          <g>
           <g>
            <g>
             <path class="fil0" d="M6320 5587l-376 -211c-40,-23 -76,-21 -99,-1l-4 -4 4 -4c23,-20 59,-22 99,1l388 218 -13 0z"/>
            </g>
           </g>
           <g>
            <g>
             <path class="fil0" d="M6320 5587l-376 -211c-40,-23 -76,-21 -99,-1l-4 -4 4 -4c23,-20 59,-22 99,1l388 218 -13 0z"/>
            </g>
           </g>
          </g>
         </g>
         <polygon class="fil7" points="2014,5587 9665,5587 9665,2660 2014,2660 "/>
        </g>
       </g>
      </g>
     </g>
    </g>
    <g>
     <g>
      <g>
       <g>
        <g>
         <g>
          <g>
           <g>
            <g>
             <path class="fil0" d="M5842 5379c-15,15 -23,38 -23,69l0 -7c0,-30 8,-54 23,-69l4 4 -4 3z"/>
            </g>
           </g>
           <g>
            <g>
             <path class="fil0" d="M5842 5379c-15,15 -23,38 -23,69l0 -7c0,-30 8,-54 23,-69l4 4 -4 3z"/>
            </g>
           </g>
          </g>
         </g>
         <polygon class="fil7" points="2014,5587 9665,5587 9665,2660 2014,2660 "/>
        </g>
       </g>
      </g>
     </g>
    </g>
    <g>
     <g>
      <g>
       <g>
        <g>
         <g>
          <g>
           <g>
            <g>
             <path class="fil0" d="M6907 2990l-246 -138 5 -4 241 136c35,19 52,45 52,71 -3,-23 -20,-46 -52,-63z"/>
            </g>
           </g>
           <g>
            <g>
             <path class="fil0" d="M6907 2990l-246 -138 5 -4 241 136c35,19 52,45 52,71 -3,-23 -20,-46 -52,-63z"/>
            </g>
           </g>
          </g>
         </g>
         <polygon class="fil7" points="2014,5587 9665,5587 9665,2660 2014,2660 "/>
        </g>
       </g>
      </g>
     </g>
    </g>
   </g>
  </g>
 </g>
</svg>
